<svg width="24" height="14" viewBox="0 0 24 14" fill="none" xmlns="http://www.w3.org/2000/svg">
<path d="M0.22 13.5V5.7C0.22 4.34 0.706667 3.17333 1.68 2.2C2.65333 1.22667 3.82 0.74 5.18 0.74C6.55333 0.74 7.72 1.22667 8.68 2.2C9.65333 3.16 10.14 4.32667 10.14 5.7V13.5H8.02V5.7C8.02 4.92667 7.74 4.26 7.18 3.7C6.62 3.14 5.95333 2.86 5.18 2.86C4.40667 2.86 3.74 3.14 3.18 3.7C2.62 4.26 2.34 4.92667 2.34 5.7V13.5H0.22Z" fill="#5C5C5C"/>
<path d="M17.9272 0.74C19.1139 0.74 20.2072 1.04667 21.2072 1.66C22.2205 2.26 23.0005 3.06 23.5472 4.06H20.9072C20.0805 3.26 19.0872 2.86 17.9272 2.86C16.7539 2.86 15.7539 3.28 14.9272 4.12C14.1005 4.94667 13.6872 5.94667 13.6872 7.12C13.6872 8.29333 14.1005 9.29333 14.9272 10.12C15.7539 10.9467 16.7539 11.36 17.9272 11.36C18.6205 11.36 19.2672 11.2067 19.8672 10.9C20.4672 10.5933 20.9605 10.1733 21.3472 9.64H23.7872C23.2939 10.7867 22.5139 11.72 21.4472 12.44C20.3939 13.1467 19.2205 13.5 17.9272 13.5C16.1672 13.5 14.6672 12.88 13.4272 11.64C12.1872 10.3867 11.5672 8.88 11.5672 7.12C11.5672 5.36 12.1872 3.86 13.4272 2.62C14.6672 1.36667 16.1672 0.74 17.9272 0.74Z" fill="#7A68B7"/>
</svg>
