<svg width="50" height="50" viewBox="0 0 50 50" fill="none" xmlns="http://www.w3.org/2000/svg">
<rect width="50" height="50" rx="25" fill="#2A58AD"/>
<path fill-rule="evenodd" clip-rule="evenodd" d="M23.5004 26.4994L23.5004 37.5006C23.5004 38.329 24.172 39.0006 25.0004 39.0006C25.8288 39.0006 26.5004 38.329 26.5004 37.5006L26.5004 26.4994H37.5011C38.3295 26.4994 39.0011 25.8279 39.0011 24.9994C39.0011 24.171 38.3295 23.4994 37.5011 23.4994H26.5004L26.5004 12.5C26.5004 11.6716 25.8288 11 25.0004 11C24.172 11 23.5004 11.6716 23.5004 12.5L23.5004 23.4994H12.5C11.6716 23.4994 11 24.171 11 24.9994C11 25.8279 11.6716 26.4994 12.5 26.4994H23.5004Z" fill="white"/>
</svg>
