<svg width="52" height="53" viewBox="0 0 52 53" fill="none" xmlns="http://www.w3.org/2000/svg">
<path d="M32.5609 48.8729V35.7477C32.5609 35.1675 32.3304 34.6111 31.9202 34.2009C31.51 33.7906 30.9536 33.5602 30.3734 33.5602H21.6234C21.0432 33.5602 20.4868 33.7906 20.0766 34.2009C19.6664 34.6111 19.4359 35.1675 19.4359 35.7477V48.8729C19.4359 49.453 19.2055 50.0094 18.7953 50.4196C18.3851 50.8299 17.8288 51.0604 17.2487 51.0604L4.12527 51.0622C3.83798 51.0622 3.5535 51.0056 3.28807 50.8957C3.02264 50.7858 2.78146 50.6247 2.5783 50.4216C2.37514 50.2184 2.21399 49.9773 2.10404 49.7118C1.99409 49.4464 1.9375 49.1619 1.9375 48.8747V23.5925C1.9375 23.2878 2.00118 22.9864 2.12446 22.7076C2.24774 22.4289 2.4279 22.179 2.65339 21.974L24.5269 2.08561C24.9295 1.7195 25.4542 1.51662 25.9984 1.5166C26.5426 1.51658 27.0673 1.71942 27.47 2.08551L49.3465 21.974C49.572 22.179 49.7522 22.4289 49.8755 22.7077C49.9988 22.9864 50.0625 23.2878 50.0625 23.5926V48.8747C50.0625 49.162 50.0059 49.4464 49.896 49.7119C49.786 49.9773 49.6249 50.2184 49.4217 50.4216C49.2185 50.6247 48.9774 50.7858 48.7119 50.8957C48.4465 51.0057 48.162 51.0622 47.8747 51.0622L34.7481 51.0604C34.168 51.0604 33.6117 50.8299 33.2015 50.4196C32.7913 50.0094 32.5609 49.453 32.5609 48.8729V48.8729Z" stroke="#DBDBDB" stroke-width="2" stroke-linecap="round" stroke-linejoin="round"/>
</svg>
