<svg width="70" height="70" viewBox="0 0 70 70" fill="none" xmlns="http://www.w3.org/2000/svg">
<path d="M24.0625 6.5625V15.3125" stroke="#DBDBDB" stroke-width="4" stroke-linecap="round" stroke-linejoin="round"/>
<path d="M32.8125 6.5625V15.3125" stroke="#DBDBDB" stroke-width="4" stroke-linecap="round" stroke-linejoin="round"/>
<path d="M41.5625 6.5625V15.3125" stroke="#DBDBDB" stroke-width="4" stroke-linecap="round" stroke-linejoin="round"/>
<path d="M8.75 59.0625H56.875" stroke="#DBDBDB" stroke-width="4" stroke-linecap="round" stroke-linejoin="round"/>
<path d="M22.7764 59.0635C18.59 57.1419 15.0431 54.0591 12.5568 50.1814C10.0705 46.3037 8.74926 41.7939 8.75 37.1875V24.0625H56.875V37.1875C56.8757 41.7939 55.5545 46.3037 53.0682 50.1815C50.5818 54.0592 47.0349 57.142 42.8484 59.0636" stroke="#DBDBDB" stroke-width="4" stroke-linecap="round" stroke-linejoin="round"/>
<path d="M56.875 24.0625C59.1956 24.0625 61.4212 24.9844 63.0622 26.6253C64.7031 28.2663 65.625 30.4919 65.625 32.8125V35C65.625 37.3206 64.7031 39.5462 63.0622 41.1872C61.4212 42.8281 59.1956 43.75 56.875 43.75H55.9512" stroke="#DBDBDB" stroke-width="4" stroke-linecap="round" stroke-linejoin="round"/>
</svg>
