<svg width="40" height="40" viewBox="0 0 40 40" fill="none" xmlns="http://www.w3.org/2000/svg">
<rect x="0.5" y="0.5" width="39" height="39" rx="19.5" fill="#E1E1E1"/>
<path d="M8.22 25.5V17.7C8.22 16.34 8.70667 15.1733 9.68 14.2C10.6533 13.2267 11.82 12.74 13.18 12.74C14.5533 12.74 15.72 13.2267 16.68 14.2C17.6533 15.16 18.14 16.3267 18.14 17.7V25.5H16.02V17.7C16.02 16.9267 15.74 16.26 15.18 15.7C14.62 15.14 13.9533 14.86 13.18 14.86C12.4067 14.86 11.74 15.14 11.18 15.7C10.62 16.26 10.34 16.9267 10.34 17.7V25.5H8.22Z" fill="#5C5C5C"/>
<path d="M25.9272 12.74C27.1139 12.74 28.2072 13.0467 29.2072 13.66C30.2205 14.26 31.0005 15.06 31.5472 16.06H28.9072C28.0805 15.26 27.0872 14.86 25.9272 14.86C24.7539 14.86 23.7539 15.28 22.9272 16.12C22.1005 16.9467 21.6872 17.9467 21.6872 19.12C21.6872 20.2933 22.1005 21.2933 22.9272 22.12C23.7539 22.9467 24.7539 23.36 25.9272 23.36C26.6205 23.36 27.2672 23.2067 27.8672 22.9C28.4672 22.5933 28.9605 22.1733 29.3472 21.64H31.7872C31.2939 22.7867 30.5139 23.72 29.4472 24.44C28.3939 25.1467 27.2205 25.5 25.9272 25.5C24.1672 25.5 22.6672 24.88 21.4272 23.64C20.1872 22.3867 19.5672 20.88 19.5672 19.12C19.5672 17.36 20.1872 15.86 21.4272 14.62C22.6672 13.3667 24.1672 12.74 25.9272 12.74Z" fill="#7A68B7"/>
<rect x="0.5" y="0.5" width="39" height="39" rx="19.5" stroke="#D1D1D1"/>
</svg>
