<svg width="104" height="20" viewBox="0 0 104 20" fill="none" xmlns="http://www.w3.org/2000/svg">
<path d="M0.864 20V10.64C0.864 9.008 1.448 7.608 2.616 6.44C3.784 5.272 5.184 4.688 6.816 4.688C8.464 4.688 9.864 5.272 11.016 6.44C12.184 7.592 12.768 8.992 12.768 10.64V20H10.224V10.64C10.224 9.712 9.888 8.912 9.216 8.24C8.544 7.568 7.744 7.232 6.816 7.232C5.888 7.232 5.088 7.568 4.416 8.24C3.744 8.912 3.408 9.712 3.408 10.64V20H0.864ZM16.7126 6.944C18.2166 5.44 20.0246 4.688 22.1366 4.688C24.2486 4.688 26.0486 5.44 27.5366 6.944C29.0406 8.432 29.7926 10.232 29.7926 12.344C29.7926 12.744 29.7526 13.168 29.6726 13.616H17.1926C17.4806 14.736 18.0806 15.656 18.9926 16.376C19.9046 17.08 20.9526 17.432 22.1366 17.432C23.6246 17.432 24.8646 16.896 25.8566 15.824H28.9526C28.3126 17.088 27.3766 18.104 26.1446 18.872C24.9286 19.624 23.5926 20 22.1366 20C20.0246 20 18.2166 19.256 16.7126 17.768C15.2246 16.264 14.4806 14.456 14.4806 12.344C14.4806 10.232 15.2246 8.432 16.7126 6.944ZM17.1926 11.072H27.0806C26.8086 9.952 26.2086 9.032 25.2806 8.312C24.3686 7.592 23.3206 7.232 22.1366 7.232C20.9526 7.232 19.8966 7.592 18.9686 8.312C18.0566 9.032 17.4646 9.952 17.1926 11.072ZM32.9062 6.944C34.4103 5.44 36.2183 4.688 38.3303 4.688C40.4423 4.688 42.2423 5.44 43.7303 6.944C45.2343 8.432 45.9863 10.232 45.9863 12.344C45.9863 14.456 45.2343 16.264 43.7303 17.768C42.2423 19.256 40.4423 20 38.3303 20C36.2183 20 34.4103 19.256 32.9062 17.768C31.4183 16.264 30.6743 14.456 30.6743 12.344C30.6743 10.232 31.4183 8.432 32.9062 6.944ZM41.9303 8.744C40.9383 7.736 39.7383 7.232 38.3303 7.232C36.9223 7.232 35.7143 7.736 34.7063 8.744C33.7143 9.736 33.2183 10.936 33.2183 12.344C33.2183 13.752 33.7143 14.952 34.7063 15.944C35.7143 16.936 36.9223 17.432 38.3303 17.432C39.7383 17.432 40.9383 16.936 41.9303 15.944C42.9383 14.952 43.4423 13.752 43.4423 12.344C43.4423 10.936 42.9383 9.736 41.9303 8.744Z" fill="white"/>
<path d="M55.2298 4.688C56.6538 4.688 57.9658 5.056 59.1658 5.792C60.3818 6.512 61.3178 7.472 61.9738 8.672H58.8058C57.8138 7.712 56.6218 7.232 55.2298 7.232C53.8218 7.232 52.6218 7.736 51.6298 8.744C50.6378 9.736 50.1418 10.936 50.1418 12.344C50.1418 13.752 50.6378 14.952 51.6298 15.944C52.6218 16.936 53.8218 17.432 55.2298 17.432C56.0618 17.432 56.8378 17.248 57.5578 16.88C58.2778 16.512 58.8698 16.008 59.3338 15.368H62.2618C61.6698 16.744 60.7338 17.864 59.4538 18.728C58.1898 19.576 56.7818 20 55.2298 20C53.1178 20 51.3178 19.256 49.8298 17.768C48.3418 16.264 47.5978 14.456 47.5978 12.344C47.5978 10.232 48.3418 8.432 49.8298 6.944C51.3178 5.44 53.1178 4.688 55.2298 4.688ZM78.5198 12.344V20H75.9758V18.032C74.5358 19.344 72.8318 20 70.8638 20C68.7518 20 66.9438 19.256 65.4398 17.768C63.9518 16.264 63.2078 14.456 63.2078 12.344C63.2078 10.232 63.9518 8.432 65.4398 6.944C66.9438 5.44 68.7518 4.688 70.8638 4.688C72.9758 4.688 74.7758 5.44 76.2638 6.944C77.7678 8.432 78.5198 10.232 78.5198 12.344ZM70.8638 7.232C69.4558 7.232 68.2558 7.736 67.2638 8.744C66.2718 9.736 65.7758 10.936 65.7758 12.344C65.7758 13.752 66.2718 14.952 67.2638 15.944C68.2558 16.936 69.4558 17.432 70.8638 17.432C72.2718 17.432 73.4718 16.936 74.4637 15.944C75.4718 14.952 75.9758 13.752 75.9758 12.344C75.9758 10.92 75.4798 9.712 74.4878 8.72C73.4958 7.728 72.2878 7.232 70.8638 7.232ZM81.7845 5.528V5.552C81.7845 4.144 82.2805 2.944 83.2725 1.952C84.2805 0.943999 85.4885 0.439999 86.8965 0.439999H87.7365V2.984H86.8965C86.1925 2.984 85.5925 3.232 85.0965 3.728C84.6005 4.224 84.3525 4.824 84.3525 5.528H87.7365V8.072H84.3525V20H81.7845V8.072H80.0805V5.528H81.7845ZM90.5876 6.944C92.0916 5.44 93.8996 4.688 96.0116 4.688C98.1236 4.688 99.9236 5.44 101.412 6.944C102.916 8.432 103.668 10.232 103.668 12.344C103.668 12.744 103.628 13.168 103.548 13.616H91.0676C91.3556 14.736 91.9556 15.656 92.8676 16.376C93.7796 17.08 94.8276 17.432 96.0116 17.432C97.4996 17.432 98.7396 16.896 99.7316 15.824H102.828C102.188 17.088 101.252 18.104 100.02 18.872C98.8036 19.624 97.4676 20 96.0116 20C93.8996 20 92.0916 19.256 90.5876 17.768C89.0996 16.264 88.3556 14.456 88.3556 12.344C88.3556 10.232 89.0996 8.432 90.5876 6.944ZM91.0676 11.072H100.956C100.684 9.952 100.084 9.032 99.1556 8.312C98.2436 7.592 97.1956 7.232 96.0116 7.232C94.8276 7.232 93.7716 7.592 92.8436 8.312C91.9316 9.032 91.3396 9.952 91.0676 11.072Z" fill="#FF9C68"/>
</svg>
