<svg width="30" height="30" viewBox="0 0 30 30" fill="none" xmlns="http://www.w3.org/2000/svg">
<path d="M11.25 26.25H18.75" stroke="white" stroke-width="2" stroke-linecap="round" stroke-linejoin="round"/>
<path d="M6.58667 12.1874C6.58512 11.0756 6.80364 9.97439 7.22965 8.94737C7.65567 7.92036 8.28074 6.98781 9.06883 6.2035C9.85693 5.41919 10.7925 4.79861 11.8215 4.37755C12.8506 3.95648 13.9528 3.74326 15.0646 3.75016C19.7041 3.78465 23.415 7.64094 23.415 12.2933V13.1249C23.415 17.3221 24.2931 19.7576 25.0665 21.0888C25.1498 21.231 25.1942 21.3927 25.1951 21.5575C25.1959 21.7224 25.1533 21.8845 25.0716 22.0277C24.9898 22.1708 24.8717 22.2898 24.7292 22.3727C24.5867 22.4556 24.4249 22.4995 24.2601 22.4999H5.74064C5.57579 22.4995 5.41395 22.4556 5.27148 22.3727C5.129 22.2897 5.01091 22.1707 4.92913 22.0275C4.84735 21.8844 4.80477 21.7222 4.80568 21.5574C4.80659 21.3925 4.85096 21.2308 4.93432 21.0886C5.70814 19.7574 6.58666 17.3219 6.58666 13.1249L6.58667 12.1874Z" stroke="white" stroke-width="2" stroke-linecap="round" stroke-linejoin="round"/>
<circle cx="19.5" cy="5.5" r="3.5" fill="#FF9C68"/>
</svg>
